HIERARCHY
ROOT Hips
{
	OFFSET 0.00 0.00 0.00
	CHANNELS 6 Xposition Yposition Zposition Xrotation Yrotation Zrotation
	JOINT LeftUpLeg
	{
		OFFSET 3.34807 0.00000 0.00000
		CHANNELS 3 Xrotation Yrotation Zrotation
		JOINT LeftLeg
		{
			OFFSET 0.00000 -16.98552 0.00000
			CHANNELS 3 Xrotation Yrotation Zrotation
			JOINT LeftFoot
			{
				OFFSET 0.00000 -16.83686 0.00000
				CHANNELS 3 Xrotation Yrotation Zrotation
				JOINT LeftToeBase
				{
					OFFSET 0.00000 -1.59599 5.95633
					CHANNELS 3 Xrotation Yrotation Zrotation
					End Site
					{
						OFFSET 0.00000 0.00000 2.95275
					}
				}
			}
		}
	}
	JOINT RightUpLeg
	{
		OFFSET -3.34807 0.00000 0.00000
		CHANNELS 3 Xrotation Yrotation Zrotation
		JOINT RightLeg
		{
			OFFSET 0.00000 -16.98552 0.00000
			CHANNELS 3 Xrotation Yrotation Zrotation
			JOINT RightFoot
			{
				OFFSET 0.00000 -16.83686 0.00000
				CHANNELS 3 Xrotation Yrotation Zrotation
				JOINT RightToeBase
				{
					OFFSET 0.00000 -1.59599 5.95633
					CHANNELS 3 Xrotation Yrotation Zrotation
					End Site
					{
						OFFSET 0.00000 0.00000 2.95275
					}
				}
			}
		}
	}
	JOINT Spine
	{
		OFFSET 0.00000 0.03937 0.00000
		CHANNELS 3 Xrotation Yrotation Zrotation
		JOINT Spine1
		{
			OFFSET 0.00000 7.93124 0.00000
			CHANNELS 3 Xrotation Yrotation Zrotation
			JOINT Neck
			{
				OFFSET 0.00000 8.48368 0.00000
				CHANNELS 3 Xrotation Yrotation Zrotation
				JOINT Head
				{
					OFFSET 0.00000 6.65077 0.00000
					CHANNELS 3 Xrotation Yrotation Zrotation
					End Site
					{
						OFFSET 0.00000 4.52755 0.00000
					}
				}
			}
			JOINT LeftShoulder
			{
				OFFSET 0.00000 8.48368 0.00000
				CHANNELS 3 Xrotation Yrotation Zrotation
				JOINT LeftArm
				{
					OFFSET 7.74502 -0.00003 0.00000
					CHANNELS 3 Xrotation Yrotation Zrotation
					JOINT LeftForeArm
					{
						OFFSET 12.49824 -0.00005 0.00000
						CHANNELS 3 Xrotation Yrotation Zrotation
						JOINT LeftHand
						{
							OFFSET 9.88337 -0.00004 0.00000
							CHANNELS 3 Xrotation Yrotation Zrotation
							JOINT LeftHandThumb
							{
								OFFSET 0.00000 0.00000 0.00000
								CHANNELS 3 Xrotation Yrotation Zrotation
								End Site
								{
									OFFSET 0.00000 0.00000 3.93700
								}
							}
							JOINT L_Wrist_End
							{
								OFFSET 3.93700 -0.00001 0.00000
								CHANNELS 3 Xrotation Yrotation Zrotation
							}
						}
					}
				}
			}
			JOINT RightShoulder
			{
				OFFSET 0.00000 8.48368 0.00000
				CHANNELS 3 Xrotation Yrotation Zrotation
				JOINT RightArm
				{
					OFFSET -7.74502 -0.00003 0.00000
					CHANNELS 3 Xrotation Yrotation Zrotation
					JOINT RightForeArm
					{
						OFFSET -12.49824 -0.00005 0.00000
						CHANNELS 3 Xrotation Yrotation Zrotation
						JOINT RightHand
						{
							OFFSET -9.88337 -0.00004 0.00000
							CHANNELS 3 Xrotation Yrotation Zrotation
							JOINT RightHandThumb
							{
								OFFSET 0.00000 0.00000 0.00000
								CHANNELS 3 Xrotation Yrotation Zrotation
								End Site
								{
									OFFSET 0.00000 0.00000 3.93700
								}
							}
							JOINT R_Wrist_End
							{
								OFFSET -5.39369 -0.00002 0.00000
								CHANNELS 3 Xrotation Yrotation Zrotation
							}
						}
					}
				}
			}
		}
	}
}
MOTION
Frames: 6
Frame Time: 0.033332
 4.3463 33.0906 -6.2587 10.7702 -7.6179 -9.8188 -34.2111 -0.2779 7.7782 49.8265 -0.0000 0.0000 -30.7168 4.8754 -4.8826 9.3121 -0.0000 0.0000 -48.9175 -3.9116 -3.2109 72.6349 -0.0000 0.0000 9.2985 -2.2787 31.3579 -5.1646 0.0000 -0.0000 0.8598 -1.8438 -1.6736 23.7360 -7.9551 -5.3251 -9.5307 10.2069 3.8850 19.9903 -7.8304 -1.7488 -4.9906 17.6217 28.1940 7.0076 -37.9948 -77.6142 -0.0003 -52.0510 -0.0001 3.3869 -32.1232 32.3531 -0.0000 -0.0000 0.0000 -0.0000 -0.0000 0.0000 19.1158 -17.8124 -12.7398 -34.9934 38.7871 96.6320 -0.0001 26.0580 0.0000 68.7123 -72.6607 -120.9124 -0.0000 0.0000 -0.0000 -0.0000 0.0000 -0.0000
 4.4530 33.5101 -5.7953 9.5361 -7.4748 -9.9655 -30.9150 2.7672 8.7982 46.3536 -0.0000 0.0000 -29.2304 2.4190 -6.1789 8.4213 -0.0000 0.0000 -45.9677 -5.0624 -4.0937 70.5501 -0.0000 0.0000 9.1024 -1.9130 31.1493 -2.6808 -0.0000 0.0000 1.0659 -2.0323 -2.1314 22.9457 -7.6087 -4.4539 -9.8201 9.6804 3.8173 20.5770 -8.2260 -1.5539 -5.0454 17.3327 29.3597 11.5664 -44.2232 -74.9781 -0.0003 -54.1443 -0.0001 4.1082 -31.5010 30.3799 -0.0000 0.0000 -0.0000 -0.0000 0.0000 -0.0000 19.2355 -17.4713 -13.8756 -33.9535 40.1028 95.8926 -0.0001 26.3559 0.0000 70.9875 -72.1630 -119.5713 -0.0000 0.0000 -0.0000 -0.0000 0.0000 -0.0000
 4.5375 34.3084 -5.4067 8.9890 -7.1205 -10.5334 -27.6649 5.3935 10.1276 40.9956 -0.0000 0.0000 -24.7899 -0.5428 -9.1846 5.7600 -0.0000 0.0000 -42.6535 -7.3925 -4.5469 66.1059 -0.0000 0.0000 9.9843 -2.2530 31.9179 -1.9623 0.0000 -0.0000 2.0512 -2.3394 -2.3141 21.0406 -7.2293 -3.3541 -10.5263 9.2298 3.8237 22.7093 -8.9678 -1.8429 -5.5547 17.2293 29.9132 16.9533 -49.3872 -71.7869 -0.0003 -55.6767 -0.0002 3.5903 -31.6851 28.9626 -0.0000 0.0000 -0.0000 -0.0000 0.0000 -0.0000 18.6279 -16.7784 -14.7149 -31.9843 41.9352 95.0884 -0.0001 26.0581 0.0000 69.3663 -72.1717 -119.7602 -0.0000 0.0000 -0.0000 -0.0000 0.0000 -0.0000
 4.5653 35.2813 -5.3831 10.6052 -5.1796 -11.2137 -29.3112 5.8564 10.8501 39.5399 -0.0000 0.0000 -16.4927 -2.3204 -12.8389 0.6589 0.0000 -0.0000 -41.2824 -10.6274 -5.1088 60.6250 -0.0000 0.0000 12.3938 -2.1967 33.0801 -1.5173 0.0000 0.0000 2.7421 -3.0679 -2.5600 19.5924 -7.2244 -1.8814 -11.4284 8.5560 4.2450 23.3889 -10.8653 -2.2162 -5.8622 17.2093 30.2997 20.4874 -54.0416 -68.2244 -0.0003 -56.6695 -0.0002 3.4394 -31.1745 25.1931 -0.0000 0.0000 -0.0000 -0.0000 0.0000 -0.0000 18.2728 -16.2464 -14.6184 -30.6254 42.4841 94.1591 -0.0001 25.9389 0.0000 70.8757 -71.1397 -117.6247 -0.0000 0.0000 -0.0000 -0.0000 0.0000 -0.0000
 4.5097 36.0907 -5.6830 14.1564 -2.6498 -12.6502 -36.1501 5.0386 11.8803 43.0735 -0.0000 0.0000 -10.1603 -0.1122 -18.4573 1.3031 0.0000 -0.0000 -42.5044 -13.6128 -4.8127 55.9982 -0.0000 0.0000 16.0782 -1.4601 32.0338 0.2353 -0.0000 0.0000 2.4743 -3.3518 -2.2651 19.4394 -6.7086 -0.1247 -12.2917 6.6919 3.9383 22.7938 -12.2051 -1.4537 -6.3408 16.2507 30.5795 23.0865 -57.8087 -63.7459 -0.0003 -58.5406 -0.0002 1.9411 -30.3474 22.4303 -0.0000 -0.0000 0.0000 -0.0000 -0.0000 0.0000 18.4054 -16.7525 -14.1941 -30.7209 41.9512 93.7611 -0.0001 25.8575 0.0000 70.9424 -70.9170 -116.9602 -0.0000 0.0000 -0.0000 -0.0000 0.0000 -0.0000
 4.4949 36.4889 -6.0400 17.5106 -1.1820 -13.6476 -41.9556 5.0601 12.3651 42.8695 -0.0000 0.0000 -12.9309 5.4343 -18.3157 1.7888 -0.0000 0.0000 -44.9867 -15.1081 -4.5574 53.5644 -0.0000 0.0000 20.4654 -0.9007 30.3057 3.0654 0.0000 -0.0000 2.1051 -3.0238 -1.7555 19.7346 -6.1740 0.2720 -12.8724 5.5567 4.0308 22.5928 -13.7638 -0.9844 -6.7025 15.3004 30.9236 25.3365 -59.1798 -59.8125 -0.0004 -61.7876 -0.0002 2.3344 -28.8155 20.4450 -0.0000 -0.0000 0.0000 -0.0000 -0.0000 0.0000 18.5737 -17.1424 -13.3838 -30.5623 41.8908 92.5776 -0.0001 26.7032 0.0000 72.7440 -70.4890 -113.8144 -0.0000 0.0000 -0.0000 -0.0000 0.0000 -0.0000
